<?xml version="1.0" standalone="no"?>
<!DOCTYPE svg PUBLIC "-//W3C//DTD SVG 20010904//EN"
 "http://www.w3.org/TR/2001/REC-SVG-20010904/DTD/svg10.dtd">
<svg version="1.0" xmlns="http://www.w3.org/2000/svg"
 width="300.000000pt" height="300.000000pt" viewBox="0 0 300.000000 300.000000"
 preserveAspectRatio="xMidYMid meet">

<g transform="translate(0.000000,300.000000) scale(0.100000,-0.100000)"
fill="#000000" stroke="none">
<path d="M0 1500 l0 -1500 1500 0 1500 0 0 1500 0 1500 -1500 0 -1500 0 0
-1500z m1548 904 c2 -27 -2 -45 -12 -53 -24 -20 -36 -4 -36 50 0 47 2 50 23
47 18 -2 23 -10 25 -44z m-85 -42 c31 -33 35 -52 9 -52 -20 0 -72 49 -72 68 0
22 36 13 63 -16z m167 6 c0 -29 -28 -58 -57 -58 -31 0 -29 8 9 47 37 39 48 41
48 11z m-245 -87 l120 -28 -3 -54 c-4 -63 -54 -277 -77 -332 -20 -49 -82 -117
-121 -133 -29 -12 -31 -17 -57 -141 -15 -70 -27 -133 -27 -139 0 -6 18 -14 40
-18 25 -4 40 -12 40 -21 0 -27 -9 -26 -197 20 -13 3 -23 12 -23 21 0 13 8 15
49 9 l49 -7 11 49 c5 26 18 88 27 136 17 86 16 88 -3 110 -36 39 -46 69 -51
157 -3 59 1 109 12 160 25 116 67 240 79 239 7 0 66 -13 132 -28z m428 -38
c26 -79 60 -274 58 -335 -1 -69 -25 -146 -55 -174 l-23 -22 26 -136 25 -137
45 3 c35 2 46 -1 49 -13 2 -13 -17 -19 -103 -34 -78 -14 -109 -15 -117 -7 -12
12 11 25 64 36 18 4 25 11 22 23 -2 10 -15 70 -29 134 -14 64 -25 119 -25 122
0 2 -11 8 -24 11 -90 23 -170 217 -189 464 -5 57 -3 62 16 67 28 7 219 43 233
44 7 1 19 -20 27 -46z m-548 -1083 c10 -16 -12 -38 -44 -45 -18 -4 -40 -22
-60 -50 -17 -24 -31 -45 -31 -48 0 -3 10 -7 22 -10 18 -5 19 -8 8 -21 -7 -9
-24 -16 -39 -16 -21 0 -33 -12 -66 -65 -30 -49 -45 -65 -62 -65 -31 0 -29 22
7 75 17 24 30 46 30 49 0 2 -16 2 -35 -1 -26 -4 -35 -2 -35 9 0 25 23 38 65
38 37 0 44 4 72 44 l31 44 -51 -5 c-57 -5 -104 8 -114 33 -7 19 13 34 47 34
20 0 22 -2 10 -10 -26 -17 141 -12 170 5 30 17 66 19 75 5z m345 -49 c0 -6 -5
-13 -12 -17 -7 -5 -4 -10 11 -16 31 -11 21 -32 -18 -38 -29 -4 -38 -14 -73
-78 -22 -40 -38 -76 -35 -79 4 -3 20 6 36 20 16 13 27 27 25 30 -3 3 -3 15 1
27 9 29 63 60 103 60 29 0 33 -3 30 -22 -2 -16 -10 -23 -28 -25 -43 -2 -45 -3
-27 -14 26 -15 21 -27 -18 -46 -36 -17 -43 -41 -10 -35 18 4 75 40 87 56 3 5
4 15 1 23 -7 18 35 63 58 63 30 0 31 -17 3 -72 l-26 -53 32 31 c17 17 37 48
45 70 15 45 55 62 55 24 0 -20 1 -20 25 -4 20 13 28 14 40 4 13 -11 11 -21
-20 -76 -20 -35 -32 -64 -27 -64 13 0 35 28 70 91 l32 56 -30 6 c-21 5 -30 12
-30 26 0 26 37 48 53 32 17 -17 45 -13 57 9 6 12 21 20 35 20 26 0 33 -14 13
-26 -7 -5 -4 -10 11 -16 31 -11 21 -32 -18 -38 -29 -4 -38 -14 -73 -78 -22
-40 -38 -76 -35 -79 4 -3 20 6 36 20 16 13 27 27 25 30 -3 3 -3 15 1 27 9 29
63 60 103 60 29 0 33 -3 30 -22 -2 -16 -10 -23 -28 -25 -43 -2 -45 -3 -27 -14
26 -15 21 -27 -18 -46 -20 -9 -34 -22 -32 -27 6 -15 37 -8 65 15 31 24 42 24
42 -1 0 -12 -13 -28 -31 -39 -27 -17 -50 -19 -162 -18 -156 2 -165 8 -129 82
30 61 28 66 -7 18 -58 -80 -129 -121 -158 -92 -7 7 -17 8 -30 1 -10 -6 -56
-10 -101 -10 -69 0 -85 4 -94 18 -11 17 -13 17 -42 -1 -34 -21 -96 -25 -113
-8 -8 8 -17 8 -31 0 -30 -16 -88 -13 -106 5 -20 20 -20 30 2 52 9 9 16 26 14
37 -4 32 40 67 93 73 45 5 47 4 43 -19 -2 -19 -11 -25 -38 -30 -19 -4 -30 -7
-24 -8 29 -3 22 -31 -12 -47 -41 -19 -49 -30 -30 -37 8 -3 31 5 51 19 44 29
43 29 66 2 16 -17 23 -19 41 -11 22 11 22 11 3 18 -53 18 -65 26 -65 43 0 39
71 82 136 82 26 0 34 -4 34 -18 0 -10 -5 -23 -12 -30 -15 -15 -48 -16 -48 -2
0 6 -15 3 -32 -6 l-33 -17 35 -9 c19 -5 42 -17 50 -26 14 -16 18 -12 47 46 31
58 31 62 13 62 -11 0 -20 6 -20 13 0 21 22 37 52 37 17 0 31 7 38 20 11 20 60
29 60 11z"/>
<path d="M1256 2234 c-18 -38 -30 -31 99 -59 39 -9 78 -18 88 -21 14 -5 17 1
17 35 0 26 -5 41 -12 41 -7 0 -50 9 -94 19 l-82 18 -16 -33z"/>
<path d="M1216 2081 c-31 -142 -18 -276 30 -308 20 -13 26 -13 51 0 31 17 93
96 93 121 0 8 4 17 9 21 10 6 57 193 50 199 -4 3 -200 46 -210 46 -3 0 -14
-36 -23 -79z m58 -13 c-4 -18 -8 -80 -8 -137 -1 -70 -5 -106 -13 -108 -15 -5
-26 47 -25 129 0 106 10 148 34 148 17 0 19 -4 12 -32z"/>
<path d="M1665 2229 c-49 -10 -90 -18 -90 -19 -4 -2 0 -70 4 -70 24 0 198 35
205 41 9 8 -11 70 -23 68 -3 -1 -46 -10 -96 -20z"/>
<path d="M1682 2120 c-51 -9 -94 -19 -96 -21 -5 -6 22 -146 36 -189 20 -58 75
-138 107 -154 27 -14 31 -14 54 4 30 24 47 87 47 177 0 60 -4 89 -25 181 -6
25 -2 25 -123 2z m-26 -87 c12 -57 48 -149 70 -185 19 -30 21 -38 10 -48 -11
-8 -18 -5 -33 17 -37 55 -83 176 -83 220 0 33 28 29 36 -4z"/>
</g>
</svg>
